<svg width="172" height="172" viewBox="0 0 172 172" fill="none" xmlns="http://www.w3.org/2000/svg">
<path d="M85.9015 0.94696C39.0554 0.94696 0.944824 39.0594 0.944824 85.9037C0.944824 132.748 39.0554 170.86 85.9015 170.86C88.5088 170.86 90.6215 168.748 90.6215 166.14C90.6215 163.533 88.5088 161.421 85.9015 161.421C44.2605 161.421 10.3847 127.545 10.3847 85.9037C10.3847 44.2626 44.2605 10.3868 85.9015 10.3868C127.543 10.3868 161.418 44.2626 161.418 85.9622C161.535 95.4341 159.175 109.018 152.145 116.138C148.837 119.483 144.825 121.112 139.879 121.112C132.689 121.112 127.622 119.349 124.382 115.724C119.915 110.725 118.405 101.523 119.893 88.3712C119.894 88.358 119.893 88.3448 119.893 88.3316C119.894 88.3165 119.9 88.3014 119.902 88.2863L120.057 86.6589C120.155 85.7337 120.261 84.8105 120.321 83.8835L123.882 46.4244C124.127 43.8284 122.224 41.527 119.628 41.2796C117.045 41.0304 114.729 42.9373 114.482 45.5313L113.721 53.5326C108.555 45.7334 100.681 41.257 90.9084 41.257C90.8367 41.257 90.7649 41.257 90.6932 41.257C76.3069 41.257 64.0728 48.6729 56.2264 62.1568C46.039 79.6639 45.0874 104.572 54.0156 120.099C59.3265 129.334 67.7128 134.419 77.6341 134.419C90.4232 134.419 101.859 127.866 109.837 115.968C110.594 114.837 111.304 113.653 111.988 112.449C113.222 116.209 115.001 119.391 117.342 122.013C122.405 127.681 129.987 130.552 139.879 130.552C147.374 130.552 153.759 127.934 158.86 122.772C167.928 113.594 171.004 97.6789 170.858 85.9055C170.856 39.0594 132.746 0.94696 85.9015 0.94696ZM101.993 110.71C97.6277 117.219 89.8606 124.979 77.6322 124.979C71.0489 124.979 65.8551 121.754 62.1981 115.394C54.9426 102.776 55.9036 81.4783 64.3844 66.905C68.6927 59.5023 76.7468 50.6987 90.7121 50.6987C90.7668 50.6987 90.8272 50.6987 90.8839 50.6987C105.746 50.6987 111.042 65.5778 111.042 79.5034C111.042 80.7212 110.985 81.9465 110.904 83.1737L110.668 85.6469C109.684 94.7677 106.618 103.811 101.993 110.71Z" fill="black"/>
</svg>
