<svg width="172" height="172" viewBox="0 0 172 172" fill="none" xmlns="http://www.w3.org/2000/svg">
<path d="M86.3358 171.202L35.4173 111.231C25.1864 99.1723 19.5508 83.8439 19.5508 68.0699C19.5508 31.2432 49.511 1.28491 86.3358 1.28491C123.161 1.28491 153.123 31.2451 153.123 68.0699C153.123 83.8439 147.487 99.1723 137.254 111.231L86.3358 171.202ZM86.3358 6.83743C52.5714 6.83743 25.1033 34.3055 25.1033 68.0699C25.1033 82.5299 30.2707 96.582 39.6501 107.638L86.3358 162.625L133.021 107.638C142.403 96.5839 147.57 82.5299 147.57 68.0699C147.568 34.3055 120.1 6.83743 86.3358 6.83743ZM86.3358 94.9678C70.2899 94.9678 57.2365 81.9125 57.2365 65.8667C57.2365 49.8208 70.2918 36.7655 86.3358 36.7655C102.382 36.7655 115.435 49.8208 115.435 65.8667C115.435 81.9125 102.382 94.9678 86.3358 94.9678ZM86.3358 42.318C73.3503 42.318 62.7872 52.8831 62.7872 65.8667C62.7872 78.8502 73.3503 89.4153 86.3358 89.4153C99.3212 89.4153 109.884 78.8502 109.884 65.8667C109.884 52.8831 99.3193 42.318 86.3358 42.318Z" fill="black"/>
</svg>
