<svg width="172" height="172" viewBox="0 0 172 172" fill="none" xmlns="http://www.w3.org/2000/svg">
<path d="M154.537 96.835L120.157 70.4204L154.711 40.4583C156.285 39.0933 156.455 36.7088 155.088 35.1343C153.723 33.5597 151.341 33.3879 149.764 34.7548L111.735 67.7301C111.725 67.7376 111.718 67.7452 111.708 67.7527L102.418 75.8087L55.0711 34.7529C53.4966 33.386 51.114 33.5578 49.7471 35.1324C48.3821 36.707 48.5501 39.0915 50.1265 40.4565L84.9407 70.6451L61.4506 89.3586C59.8194 90.6575 59.5513 93.0326 60.8502 94.6638C61.596 95.6002 62.6948 96.0873 63.8049 96.0873C64.628 96.0873 65.4587 95.8174 66.1535 95.2661L90.7424 75.6784L99.9444 83.657C100.654 84.2724 101.536 84.5802 102.418 84.5802C103.299 84.5802 104.181 84.2724 104.891 83.657L114.334 75.4688L149.938 102.822C150.623 103.348 151.433 103.603 152.235 103.603C153.366 103.603 154.488 103.097 155.23 102.129C156.5 100.475 156.191 98.1056 154.537 96.835Z" fill="black"/>
<path d="M159.542 20.9537H45.2934C39.0517 20.9537 33.9731 26.0324 33.9731 32.274V35.325C31.8491 33.7636 28.9964 33.3539 26.4552 34.4697C24.8127 35.1928 22.6679 36.1311 20.4326 37.1015L20.3722 37.128C15.6032 39.1953 12.0934 40.6773 10.2187 41.4118C8.81969 41.9593 7.64727 42.7711 6.73538 43.8246C-8.69499 61.6263 8.95941 94.1541 33.301 118.496C51.3103 136.505 73.796 150.855 91.4882 150.854C97.7109 150.852 103.341 149.077 107.972 145.065C109.024 144.153 109.835 142.981 110.385 141.58C111.131 139.675 112.596 136.205 114.735 131.279C115.692 129.074 116.615 126.963 117.327 125.343C118.499 122.676 117.997 119.661 116.236 117.512H159.544C165.787 117.512 170.864 112.433 170.864 106.192V32.2778C170.862 26.0324 165.784 20.9537 159.542 20.9537ZM107.81 128.268C105.635 133.282 104.134 136.835 103.354 138.825C103.26 139.065 103.141 139.26 103.027 139.358C89.5889 151.008 60.467 134.987 38.6383 113.158C16.8077 91.3259 0.797715 62.2002 12.4389 48.7692C12.539 48.654 12.7335 48.5351 12.9732 48.4407C14.9801 47.6553 18.5314 46.1562 23.5307 43.987C25.7453 43.026 27.8655 42.099 29.5118 41.3948L43.2298 64.5337L34.7245 80.3794C33.133 83.3436 33.6635 86.9326 36.0423 89.3133L62.4871 115.758C64.8697 118.137 68.4606 118.667 71.4191 117.072L87.2856 108.567L110.404 122.287L110.415 122.306C109.698 123.935 108.767 126.057 107.81 128.268ZM163.312 106.188C163.312 108.267 161.621 109.958 159.542 109.958H104.423L91.1351 102.072C88.8677 100.728 86.0168 100.668 83.6928 101.916L67.8225 110.417L41.3758 83.9477L49.8811 68.1039C51.1272 65.7798 51.0668 62.9289 49.7225 60.6596L41.5231 46.8416V32.274C41.5231 30.1953 43.2147 28.5037 45.2934 28.5037H159.542C161.621 28.5037 163.312 30.1953 163.312 32.274V106.188Z" fill="black"/>
</svg>
